<svg xmlns="http://www.w3.org/2000/svg" viewBox="0 0 1024 1024" role="img" aria-label="Terrane app icon">
  <defs>
    <linearGradient id="bg" x1="120" y1="64" x2="904" y2="960" gradientUnits="userSpaceOnUse">
      <stop offset="0" stop-color="#233630"/>
      <stop offset="0.46" stop-color="#172522"/>
      <stop offset="1" stop-color="#0f1718"/>
    </linearGradient>

    <radialGradient id="bgGlow" cx="43%" cy="30%" r="66%" gradientUnits="userSpaceOnUse">
      <stop offset="0" stop-color="#5e8067" stop-opacity="0.42"/>
      <stop offset="0.48" stop-color="#31443b" stop-opacity="0.16"/>
      <stop offset="1" stop-color="#0f1718" stop-opacity="0"/>
    </radialGradient>

    <linearGradient id="topSoil" x1="274" y1="282" x2="761" y2="570" gradientUnits="userSpaceOnUse">
      <stop offset="0" stop-color="#95a46e"/>
      <stop offset="0.44" stop-color="#617c55"/>
      <stop offset="1" stop-color="#304f43"/>
    </linearGradient>

    <linearGradient id="leftFace" x1="258" y1="401" x2="472" y2="720" gradientUnits="userSpaceOnUse">
      <stop offset="0" stop-color="#7c4b35"/>
      <stop offset="0.44" stop-color="#a4633c"/>
      <stop offset="1" stop-color="#4b2e29"/>
    </linearGradient>

    <linearGradient id="rightFace" x1="462" y1="573" x2="808" y2="433" gradientUnits="userSpaceOnUse">
      <stop offset="0" stop-color="#5d382d"/>
      <stop offset="0.5" stop-color="#8d5536"/>
      <stop offset="1" stop-color="#b1753e"/>
    </linearGradient>

    <linearGradient id="frontFace" x1="324" y1="603" x2="733" y2="738" gradientUnits="userSpaceOnUse">
      <stop offset="0" stop-color="#2c2f2c"/>
      <stop offset="0.36" stop-color="#4b3129"/>
      <stop offset="0.7" stop-color="#915738"/>
      <stop offset="1" stop-color="#382b29"/>
    </linearGradient>

    <linearGradient id="rim" x1="318" y1="320" x2="720" y2="542" gradientUnits="userSpaceOnUse">
      <stop offset="0" stop-color="#d3c181" stop-opacity="0.72"/>
      <stop offset="1" stop-color="#1f352f" stop-opacity="0.08"/>
    </linearGradient>

    <linearGradient id="channel" x1="344" y1="424" x2="676" y2="431" gradientUnits="userSpaceOnUse">
      <stop offset="0" stop-color="#9bbf84" stop-opacity="0"/>
      <stop offset="0.46" stop-color="#8ee0d8"/>
      <stop offset="1" stop-color="#9bbf84" stop-opacity="0"/>
    </linearGradient>

    <filter id="softShadow" x="-20%" y="-20%" width="140%" height="150%">
      <feDropShadow dx="0" dy="34" stdDeviation="36" flood-color="#050809" flood-opacity="0.5"/>
      <feDropShadow dx="0" dy="8" stdDeviation="9" flood-color="#050809" flood-opacity="0.3"/>
    </filter>

    <filter id="glow" x="-80%" y="-80%" width="260%" height="260%">
      <feGaussianBlur stdDeviation="10" result="blur"/>
      <feMerge>
        <feMergeNode in="blur"/>
        <feMergeNode in="SourceGraphic"/>
      </feMerge>
    </filter>

    <clipPath id="iconMask">
      <rect x="64" y="64" width="896" height="896" rx="214"/>
    </clipPath>

    <clipPath id="frontClip">
      <path d="M254 454 L440 600 L801 430 L801 592 L440 768 L254 616 Z"/>
    </clipPath>
  </defs>

  <rect width="1024" height="1024" fill="#0f1718"/>
  <g clip-path="url(#iconMask)">
    <rect x="64" y="64" width="896" height="896" rx="214" fill="url(#bg)"/>
    <rect x="64" y="64" width="896" height="896" rx="214" fill="url(#bgGlow)"/>

    <circle cx="250" cy="250" r="214" fill="#89a66f" opacity="0.06"/>
    <circle cx="833" cy="809" r="256" fill="#bd7042" opacity="0.08"/>

    <g filter="url(#softShadow)">
      <path d="M254 454 L440 600 L801 430 L620 286 Z" fill="url(#topSoil)"/>
      <path d="M254 454 L440 600 L440 768 L254 616 Z" fill="url(#leftFace)"/>
      <path d="M440 600 L801 430 L801 592 L440 768 Z" fill="url(#rightFace)"/>
      <path d="M254 616 L440 768 L801 592 L801 642 L440 821 L254 670 Z" fill="url(#frontFace)"/>

      <path d="M254 454 L440 600 L801 430" fill="none" stroke="url(#rim)" stroke-width="11" stroke-linejoin="round"/>
      <path d="M254 454 L620 286 L801 430 L440 600 Z" fill="none" stroke="#f0d78d" stroke-opacity="0.1" stroke-width="4" stroke-linejoin="round"/>

      <g clip-path="url(#frontClip)" opacity="0.88">
        <path d="M272 515 C354 568 392 575 456 557 C548 530 619 466 782 462" fill="none" stroke="#e6b464" stroke-width="18" stroke-linecap="round" opacity="0.58"/>
        <path d="M266 565 C356 617 411 629 490 598 C580 563 664 514 803 508" fill="none" stroke="#342723" stroke-width="19" stroke-linecap="round" opacity="0.58"/>
        <path d="M260 612 C338 669 414 692 502 650 C593 607 682 571 804 566" fill="none" stroke="#c56e41" stroke-width="18" stroke-linecap="round" opacity="0.62"/>
        <path d="M296 680 C386 717 470 727 554 682 C642 635 706 625 813 616" fill="none" stroke="#e4a953" stroke-width="13" stroke-linecap="round" opacity="0.54"/>
      </g>

      <path d="M336 436 C401 397 461 399 517 434 C571 468 620 469 692 428"
            fill="none" stroke="#132220" stroke-width="28" stroke-linecap="round" opacity="0.42"/>
      <path d="M336 436 C401 397 461 399 517 434 C571 468 620 469 692 428"
            fill="none" stroke="url(#channel)" stroke-width="12" stroke-linecap="round" filter="url(#glow)" opacity="0.98"/>

      <ellipse cx="620" cy="385" rx="58" ry="27" fill="#1d332e" opacity="0.42"/>
      <ellipse cx="619" cy="380" rx="39" ry="17" fill="#8aa26b" opacity="0.46"/>
      <path d="M425 350 C471 329 519 327 559 345" fill="none" stroke="#d9c879" stroke-width="10" stroke-linecap="round" opacity="0.22"/>
      <path d="M348 474 C383 503 417 513 454 508" fill="none" stroke="#15241f" stroke-width="8" stroke-linecap="round" opacity="0.22"/>
    </g>

    <rect x="66" y="66" width="892" height="892" rx="212" fill="none" stroke="#ffffff" stroke-opacity="0.06" stroke-width="4"/>
  </g>
</svg>
